<svg width="191" height="148" viewBox="0 0 191 148" fill="none" xmlns="http://www.w3.org/2000/svg">
<g clip-path="url(#clip0_6628_141181)">
<g clip-path="url(#clip1_6628_141181)">
<path d="M171.463 128.352H158.877V128.447H171.463V128.352Z" fill="#EBEBEB"/>
<path d="M126.359 129.375H123.057V129.47H126.359V129.375Z" fill="#EBEBEB"/>
<path d="M158.493 124.82H151.201V124.915H158.493V124.82Z" fill="#EBEBEB"/>
<path d="M36.8477 125.453H20.4355V125.548H36.8477V125.453Z" fill="#EBEBEB"/>
<path d="M42.6339 125.453H40.2285V125.548H42.6339V125.453Z" fill="#EBEBEB"/>
<path d="M86.0574 127.062H50.459V127.157H86.0574V127.062Z" fill="#EBEBEB"/>
<path d="M91.2744 107.182H17.8964C17.3216 107.182 16.7702 106.954 16.3634 106.548C15.9566 106.142 15.7276 105.591 15.7266 105.016V1.86913C15.7276 1.29432 15.9566 0.743396 16.3634 0.337301C16.7702 -0.0687939 17.3216 -0.296876 17.8964 -0.296875H91.2744C91.8492 -0.296876 92.4005 -0.0687939 92.8073 0.337301C93.2141 0.743396 93.4432 1.29432 93.4442 1.86913V105.032C93.4392 105.604 93.2083 106.151 92.802 106.554C92.3956 106.956 91.8466 107.182 91.2744 107.182ZM17.8964 -0.201875C17.3467 -0.201876 16.8196 0.0161973 16.4306 0.404476C16.0416 0.792755 15.8226 1.31951 15.8216 1.86913V105.032C15.8226 105.581 16.0416 106.108 16.4306 106.496C16.8196 106.884 17.3467 107.103 17.8964 107.103H91.2744C91.824 107.103 92.3511 106.884 92.7401 106.496C93.1291 106.108 93.3482 105.581 93.3492 105.032V1.86913C93.3482 1.31951 93.1291 0.792755 92.7401 0.404476C92.3511 0.0161973 91.824 -0.201876 91.2744 -0.201875H17.8964Z" fill="#EBEBEB"/>
<path d="M173.468 107.182H100.09C99.5149 107.182 98.9636 106.954 98.5568 106.548C98.15 106.142 97.9209 105.591 97.9199 105.016V1.86913C97.9209 1.29432 98.15 0.743396 98.5568 0.337301C98.9636 -0.0687939 99.5149 -0.296876 100.09 -0.296875H173.468C174.043 -0.296876 174.594 -0.0687939 175.001 0.337301C175.407 0.743396 175.637 1.29432 175.638 1.86913V105.032C175.633 105.604 175.402 106.151 174.995 106.554C174.589 106.956 174.04 107.182 173.468 107.182ZM100.09 -0.201875C99.5401 -0.201876 99.013 0.0161973 98.624 0.404476C98.235 0.792755 98.0159 1.31951 98.0149 1.86913V105.032C98.0159 105.581 98.235 106.108 98.624 106.496C99.013 106.884 99.5401 107.103 100.09 107.103H173.468C174.017 107.103 174.545 106.884 174.933 106.496C175.322 106.108 175.542 105.581 175.543 105.032V1.86913C175.542 1.31951 175.322 0.792755 174.933 0.404476C174.545 0.0161973 174.017 -0.201876 173.468 -0.201875H100.09Z" fill="#EBEBEB"/>
<path d="M190.5 124.133H0.5V124.228H190.5V124.133Z" fill="#EBEBEB"/>
<path d="M110.335 68.1562H85.9316V114.151H110.335V68.1562Z" fill="#EBEBEB"/>
<path d="M90.6172 62.2656V68.1632H92.5438H103.723H105.65V62.2656H90.6172Z" fill="#EBEBEB"/>
<path d="M90.6177 69.7188H87.4941V72.8424H90.6177V69.7188Z" fill="#FAFAFA"/>
<path d="M96.6705 69.7188H93.5469V72.8424H96.6705V69.7188Z" fill="#FAFAFA"/>
<path d="M102.719 69.7188H99.5957V72.8424H102.719V69.7188Z" fill="#FAFAFA"/>
<path d="M108.774 69.7188H105.65V72.8424H108.774V69.7188Z" fill="#FAFAFA"/>
<path d="M90.6177 75.3984H87.4941V78.522H90.6177V75.3984Z" fill="#FAFAFA"/>
<path d="M96.6705 75.3984H93.5469V78.522H96.6705V75.3984Z" fill="#FAFAFA"/>
<path d="M102.719 75.3984H99.5957V78.522H102.719V75.3984Z" fill="#FAFAFA"/>
<path d="M108.774 75.3984H105.65V78.522H108.774V75.3984Z" fill="#FAFAFA"/>
<path d="M90.6177 81.0703H87.4941V84.1939H90.6177V81.0703Z" fill="#FAFAFA"/>
<path d="M96.6705 81.0703H93.5469V84.1939H96.6705V81.0703Z" fill="#FAFAFA"/>
<path d="M102.719 81.0703H99.5957V84.1939H102.719V81.0703Z" fill="#FAFAFA"/>
<path d="M96.6705 64.8125H93.5469V67.9361H96.6705V64.8125Z" fill="#FAFAFA"/>
<path d="M102.719 64.8125H99.5957V67.9361H102.719V64.8125Z" fill="#FAFAFA"/>
<path d="M108.774 81.0703H105.65V84.1939H108.774V81.0703Z" fill="#FAFAFA"/>
<path d="M90.6177 86.75H87.4941V89.8736H90.6177V86.75Z" fill="#FAFAFA"/>
<path d="M96.6705 86.75H93.5469V89.8736H96.6705V86.75Z" fill="#FAFAFA"/>
<path d="M102.719 86.75H99.5957V89.8736H102.719V86.75Z" fill="#FAFAFA"/>
<path d="M108.774 86.75H105.65V89.8736H108.774V86.75Z" fill="#FAFAFA"/>
<path d="M90.6177 92.4297H87.4941V95.5533H90.6177V92.4297Z" fill="#FAFAFA"/>
<path d="M96.6705 92.4297H93.5469V95.5533H96.6705V92.4297Z" fill="#FAFAFA"/>
<path d="M102.719 92.4297H99.5957V95.5533H102.719V92.4297Z" fill="#FAFAFA"/>
<path d="M108.774 92.4297H105.65V95.5533H108.774V92.4297Z" fill="#FAFAFA"/>
<path d="M90.6177 98.1016H87.4941V101.225H90.6177V98.1016Z" fill="#FAFAFA"/>
<path d="M96.6705 98.1016H93.5469V101.225H96.6705V98.1016Z" fill="#FAFAFA"/>
<path d="M102.719 98.1016H99.5957V101.225H102.719V98.1016Z" fill="#FAFAFA"/>
<path d="M108.774 98.1016H105.65V101.225H108.774V98.1016Z" fill="#FAFAFA"/>
<path d="M90.6177 103.781H87.4941V106.905H90.6177V103.781Z" fill="#FAFAFA"/>
<path d="M96.6705 103.781H93.5469V106.905H96.6705V103.781Z" fill="#FAFAFA"/>
<path d="M102.719 103.781H99.5957V106.905H102.719V103.781Z" fill="#FAFAFA"/>
<path d="M108.774 103.781H105.65V106.905H108.774V103.781Z" fill="#FAFAFA"/>
<path d="M85.4253 68.1875H110.836V67.5491H85.4253V68.1875Z" fill="#F5F5F5"/>
<path d="M86.6127 60.1953H57.6035V114.155H86.6127V60.1953Z" fill="#E6E6E6"/>
<path d="M63.1738 53.1875V60.1985H65.4614H78.7538H81.0414V53.1875H63.1738Z" fill="#E6E6E6"/>
<path d="M57.0028 60.2344L87.209 60.2344V59.4782L57.0028 59.4782V60.2344Z" fill="#F5F5F5"/>
<path d="M62.417 53.1875H81.8008V52.4313H62.417V53.1875Z" fill="#F5F5F5"/>
<path d="M80.5619 60.1953H51.5527V114.155H80.5619V60.1953Z" fill="#F0F0F0"/>
<path d="M57.123 53.1875V60.1985H59.4106H72.703H74.9906V53.1875H57.123Z" fill="#F0F0F0"/>
<path d="M57.1247 62.0469H53.4121V65.7595H57.1247V62.0469Z" fill="white"/>
<path d="M64.3181 62.0469H60.6055V65.7595H64.3181V62.0469Z" fill="white"/>
<path d="M71.5114 62.0469H67.7988V65.7595H71.5114V62.0469Z" fill="white"/>
<path d="M78.7048 62.0469H74.9922V65.7595H78.7048V62.0469Z" fill="white"/>
<path d="M57.1247 68.7969H53.4121V72.5095H57.1247V68.7969Z" fill="white"/>
<path d="M64.3181 68.7969H60.6055V72.5095H64.3181V68.7969Z" fill="white"/>
<path d="M71.5114 68.7969H67.7988V72.5095H71.5114V68.7969Z" fill="white"/>
<path d="M78.7048 68.7969H74.9922V72.5095H78.7048V68.7969Z" fill="white"/>
<path d="M57.1247 75.5469H53.4121V79.2595H57.1247V75.5469Z" fill="white"/>
<path d="M64.3181 75.5469H60.6055V79.2595H64.3181V75.5469Z" fill="white"/>
<path d="M71.5114 75.5469H67.7988V79.2595H71.5114V75.5469Z" fill="white"/>
<path d="M64.3181 56.2188H60.6055V59.9314H64.3181V56.2188Z" fill="white"/>
<path d="M71.5114 56.2188H67.7988V59.9314H71.5114V56.2188Z" fill="white"/>
<path d="M78.7048 75.5469H74.9922V79.2595H78.7048V75.5469Z" fill="white"/>
<path d="M57.1247 82.2969H53.4121V86.0095H57.1247V82.2969Z" fill="white"/>
<path d="M64.3181 82.2969H60.6055V86.0095H64.3181V82.2969Z" fill="white"/>
<path d="M71.5114 82.2969H67.7988V86.0095H71.5114V82.2969Z" fill="white"/>
<path d="M78.7048 82.2969H74.9922V86.0095H78.7048V82.2969Z" fill="white"/>
<path d="M57.1247 89.0469H53.4121V92.7595H57.1247V89.0469Z" fill="white"/>
<path d="M64.3181 89.0469H60.6055V92.7595H64.3181V89.0469Z" fill="white"/>
<path d="M71.5114 89.0469H67.7988V92.7595H71.5114V89.0469Z" fill="white"/>
<path d="M78.7048 89.0469H74.9922V92.7595H78.7048V89.0469Z" fill="white"/>
<path d="M57.1247 95.7891H53.4121V99.5017H57.1247V95.7891Z" fill="white"/>
<path d="M64.3181 95.7891H60.6055V99.5017H64.3181V95.7891Z" fill="white"/>
<path d="M71.5114 95.7891H67.7988V99.5017H71.5114V95.7891Z" fill="white"/>
<path d="M78.7048 95.7891H74.9922V99.5017H78.7048V95.7891Z" fill="white"/>
<path d="M57.1247 102.539H53.4121V106.252H57.1247V102.539Z" fill="white"/>
<path d="M64.3181 102.539H60.6055V106.252H64.3181V102.539Z" fill="white"/>
<path d="M71.5114 102.539H67.7988V106.252H71.5114V102.539Z" fill="white"/>
<path d="M78.7048 102.539H74.9922V106.252H78.7048V102.539Z" fill="white"/>
<path d="M50.9559 60.2344L81.1621 60.2344V59.4782L50.9559 59.4782V60.2344Z" fill="#F5F5F5"/>
<path d="M56.3682 53.1875H75.752V52.4313H56.3682V53.1875Z" fill="#F5F5F5"/>
<path d="M36.9542 84.6407H20.7168V113.943H46.629V84.6407V73.3281L36.9542 84.6407Z" fill="#F5F5F5"/>
<path d="M51.4663 73.3281H46.6289V113.943H51.4663V73.3281Z" fill="#E6E6E6"/>
<path d="M25.7808 89.8047H21.9238V93.6617H25.7808V89.8047Z" fill="#E0E0E0"/>
<path opacity="0.3" d="M25.7811 89.8047H22.3535V93.6617H25.7811V89.8047Z" fill="white"/>
<path d="M25.7808 96.2969H21.9238V100.154H25.7808V96.2969Z" fill="#E0E0E0"/>
<path opacity="0.3" d="M25.7811 96.2969H22.3535V100.154H25.7811V96.2969Z" fill="white"/>
<path d="M25.7808 102.781H21.9238V106.638H25.7808V102.781Z" fill="#E0E0E0"/>
<path opacity="0.3" d="M25.7811 102.781H22.3535V106.638H25.7811V102.781Z" fill="white"/>
<path opacity="0.2" d="M26.2105 102.781H22.3535V106.638H26.2105V102.781Z" fill="white"/>
<path d="M32.2828 89.8047H28.4258V93.6617H32.2828V89.8047Z" fill="#E0E0E0"/>
<path opacity="0.3" d="M32.2831 89.8047H28.8555V93.6617H32.2831V89.8047Z" fill="white"/>
<path d="M32.2828 96.2969H28.4258V100.154H32.2828V96.2969Z" fill="#E0E0E0"/>
<path opacity="0.3" d="M32.2831 96.2969H28.8555V100.154H32.2831V96.2969Z" fill="white"/>
<path d="M32.2828 102.781H28.4258V106.638H32.2828V102.781Z" fill="#E0E0E0"/>
<path opacity="0.3" d="M32.2831 102.781H28.8555V106.638H32.2831V102.781Z" fill="white"/>
<path opacity="0.2" d="M32.7125 102.781H28.8555V106.638H32.7125V102.781Z" fill="white"/>
<path d="M38.7847 89.8047H34.9277V93.6617H38.7847V89.8047Z" fill="#E0E0E0"/>
<path opacity="0.3" d="M38.785 89.8047H35.3574V93.6617H38.785V89.8047Z" fill="white"/>
<path d="M38.7847 96.2969H34.9277V100.154H38.7847V96.2969Z" fill="#E0E0E0"/>
<path opacity="0.3" d="M38.785 96.2969H35.3574V100.154H38.785V96.2969Z" fill="white"/>
<path d="M38.7847 102.781H34.9277V106.638H38.7847V102.781Z" fill="#E0E0E0"/>
<path opacity="0.3" d="M38.785 102.781H35.3574V106.638H38.785V102.781Z" fill="white"/>
<path opacity="0.2" d="M39.2144 102.781H35.3574V106.638H39.2144V102.781Z" fill="white"/>
<path d="M45.2828 89.8047H41.4258V93.6617H45.2828V89.8047Z" fill="#E0E0E0"/>
<path opacity="0.3" d="M45.2831 89.8047H41.8555V93.6617H45.2831V89.8047Z" fill="white"/>
<path d="M45.2828 96.2969H41.4258V100.154H45.2828V96.2969Z" fill="#E0E0E0"/>
<path opacity="0.3" d="M45.2831 96.2969H41.8555V100.154H45.2831V96.2969Z" fill="white"/>
<path d="M45.2828 102.781H41.4258V106.638H45.2828V102.781Z" fill="#E0E0E0"/>
<path opacity="0.3" d="M45.2831 102.781H41.8555V106.638H45.2831V102.781Z" fill="white"/>
<path opacity="0.2" d="M45.7164 102.781H41.8594V106.638H45.7164V102.781Z" fill="white"/>
<path d="M131.174 21.2232L141.293 21.1092C141.652 21.1045 142.005 21.2049 142.308 21.398C145.507 24.438 149.193 22.6824 150.831 21.6184C151.454 21.2104 152.18 20.9865 152.925 20.9724L164.2 20.8432C168.433 20.7938 169.387 14.8582 165.374 13.5168L165.222 13.4484C169.599 9.71678 159.811 2.04838 149.399 12.9354C150.181 9.34058 140.83 10.7428 138.021 15.6676C136.965 12.4832 128.1 18.168 131.174 21.2232Z" fill="#F0F0F0"/>
<path d="M73.3468 36.184H90.1504C92.3012 36.184 92.8104 33.1706 90.7888 32.4638L90.709 32.4372C92.9586 30.5638 88.0262 26.6118 82.6644 32.0838C83.0824 30.2598 78.3172 30.9172 76.8618 33.4062C76.345 31.7722 71.8002 34.6108 73.3468 36.184Z" fill="#F0F0F0"/>
<path d="M26.3059 21.7566H54.8515C58.5071 21.7566 59.3887 16.638 55.9345 15.4334L55.8015 15.3916C59.6243 12.2072 51.2415 5.51156 42.1215 14.7874C42.8321 11.6904 34.7381 12.8114 32.2643 17.037C31.3979 14.263 23.6801 19.0814 26.3059 21.7566Z" fill="#F0F0F0"/>
<path d="M104.919 79.7266H80.7168V116.917H104.919V79.7266Z" fill="#9E9E9E"/>
<path opacity="0.6" d="M100.834 79.7266H80.7168V116.921H100.834V79.7266Z" fill="white"/>
<path opacity="0.3" d="M104.923 79.7266H100.834V116.921H104.923V79.7266Z" fill="white"/>
<path d="M86.8343 81.6172H82.4453V86.0062H86.8343V81.6172Z" fill="#9E9E9E"/>
<path d="M92.9671 81.6172H88.5781V86.0062H92.9671V81.6172Z" fill="#9E9E9E"/>
<path d="M99.1058 81.6172H94.7168V86.0062H99.1058V81.6172Z" fill="#9E9E9E"/>
<path d="M86.8343 87.3359H82.4453V91.7249H86.8343V87.3359Z" fill="#9E9E9E"/>
<path d="M92.9671 87.3359H88.5781V91.7249H92.9671V87.3359Z" fill="#9E9E9E"/>
<path d="M99.1058 87.3359H94.7168V91.7249H99.1058V87.3359Z" fill="#9E9E9E"/>
<path d="M86.8343 93.0547H82.4453V97.4437H86.8343V93.0547Z" fill="#9E9E9E"/>
<path d="M92.9671 93.0547H88.5781V97.4437H92.9671V93.0547Z" fill="#9E9E9E"/>
<path d="M99.1058 93.0547H94.7168V97.4437H99.1058V93.0547Z" fill="#9E9E9E"/>
<path d="M86.8343 98.7734H82.4453V103.162H86.8343V98.7734Z" fill="#9E9E9E"/>
<path d="M92.9671 98.7734H88.5781V103.162H92.9671V98.7734Z" fill="#9E9E9E"/>
<path d="M99.1058 98.7734H94.7168V103.162H99.1058V98.7734Z" fill="#9E9E9E"/>
<path d="M86.8343 104.492H82.4453V108.881H86.8343V104.492Z" fill="#9E9E9E"/>
<path d="M92.9671 104.492H88.5781V108.881H92.9671V104.492Z" fill="#9E9E9E"/>
<path d="M99.1058 104.492H94.7168V108.881H99.1058V104.492Z" fill="#9E9E9E"/>
<path d="M86.8343 111.734H82.4453V116.921H86.8343V111.734Z" fill="#9E9E9E"/>
<path d="M92.9671 110.211H88.5781V116.918H92.9671V110.211Z" fill="#9E9E9E"/>
<path d="M99.1058 111.734H94.7168V116.921H99.1058V111.734Z" fill="#9E9E9E"/>
<path opacity="0.4" d="M86.8346 81.6172H82.8066V86.0062H86.8346V81.6172Z" fill="white"/>
<path opacity="0.4" d="M92.9714 81.6172H88.9434V86.0062H92.9714V81.6172Z" fill="white"/>
<path opacity="0.4" d="M99.1081 81.6172H95.0801V86.0062H99.1081V81.6172Z" fill="white"/>
<path opacity="0.4" d="M86.8346 87.3359H82.8066V91.7249H86.8346V87.3359Z" fill="white"/>
<path opacity="0.4" d="M92.9714 87.3359H88.9434V91.7249H92.9714V87.3359Z" fill="white"/>
<path opacity="0.4" d="M99.1081 87.3359H95.0801V91.7249H99.1081V87.3359Z" fill="white"/>
<path opacity="0.4" d="M86.8346 93.0547H82.8066V97.4437H86.8346V93.0547Z" fill="white"/>
<path opacity="0.4" d="M92.9714 93.0547H88.9434V97.4437H92.9714V93.0547Z" fill="white"/>
<path opacity="0.4" d="M99.1081 93.0547H95.0801V97.4437H99.1081V93.0547Z" fill="white"/>
<path opacity="0.4" d="M86.8346 98.7734H82.8066V103.162H86.8346V98.7734Z" fill="white"/>
<path opacity="0.4" d="M92.9714 98.7734H88.9434V103.162H92.9714V98.7734Z" fill="white"/>
<path opacity="0.4" d="M99.1081 98.7734H95.0801V103.162H99.1081V98.7734Z" fill="white"/>
<path opacity="0.4" d="M86.8346 104.492H82.8066V108.881H86.8346V104.492Z" fill="white"/>
<path opacity="0.4" d="M92.9714 104.492H88.9434V108.881H92.9714V104.492Z" fill="white"/>
<path opacity="0.4" d="M99.1081 104.492H95.0801V108.881H99.1081V104.492Z" fill="white"/>
<path opacity="0.4" d="M86.8346 111.734H82.8066V116.921H86.8346V111.734Z" fill="white"/>
<path opacity="0.4" d="M92.9714 110.211H88.9434V116.918H92.9714V110.211Z" fill="white"/>
<path opacity="0.4" d="M99.1081 111.734H95.0801V116.921H99.1081V111.734Z" fill="white"/>
<path d="M79.2461 78.1172H109.068L108.183 80.0058H80.1353L79.2461 78.1172Z" fill="#9E9E9E"/>
<path opacity="0.2" d="M101.275 78.1172H109.069L108.184 80.0058H100.85L101.275 78.1172Z" fill="black"/>
<path d="M168.192 57.4766H143.766V116.916H168.192V57.4766Z" fill="#9E9E9E"/>
<path opacity="0.4" d="M162.348 57.4766H143.766V116.916H162.348V57.4766Z" fill="white"/>
<path d="M169.337 55.7188H142.619V57.6149H169.337V55.7188Z" fill="#9E9E9E"/>
<path opacity="0.2" d="M169.336 55.7188H162.352V57.6149H169.336V55.7188Z" fill="black"/>
<path opacity="0.3" d="M168.196 57.6172H162.352V116.92H168.196V57.6172Z" fill="white"/>
<path d="M149.418 59.8516H146.26V64.6358H149.418V59.8516Z" fill="#9E9E9E"/>
<path opacity="0.2" d="M149.418 60.1641H146.26V64.6291H149.418V60.1641Z" fill="white"/>
<path d="M146.712 59.8516H146.26V64.6358H146.712V59.8516Z" fill="#9E9E9E"/>
<path d="M154.39 59.8516H151.232V64.6358H154.39V59.8516Z" fill="#9E9E9E"/>
<path opacity="0.2" d="M154.39 60.1641H151.232V64.6291H154.39V60.1641Z" fill="white"/>
<path d="M151.685 59.8516H151.232V64.6358H151.685V59.8516Z" fill="#9E9E9E"/>
<path d="M159.365 59.8516H156.207V64.6358H159.365V59.8516Z" fill="#9E9E9E"/>
<path opacity="0.2" d="M159.365 60.1641H156.207V64.6291H159.365V60.1641Z" fill="white"/>
<path d="M156.659 59.8516H156.207V64.6358H156.659V59.8516Z" fill="#9E9E9E"/>
<path d="M149.418 67.0547H146.26V71.8389H149.418V67.0547Z" fill="#9E9E9E"/>
<path opacity="0.2" d="M149.418 67.3672H146.26V71.8322H149.418V67.3672Z" fill="white"/>
<path d="M146.712 67.0547H146.26V71.8389H146.712V67.0547Z" fill="#9E9E9E"/>
<path d="M154.39 67.0547H151.232V71.8389H154.39V67.0547Z" fill="#9E9E9E"/>
<path opacity="0.2" d="M154.39 67.3672H151.232V71.8322H154.39V67.3672Z" fill="white"/>
<path d="M151.685 67.0547H151.232V71.8389H151.685V67.0547Z" fill="#9E9E9E"/>
<path d="M159.365 67.0547H156.207V71.8389H159.365V67.0547Z" fill="#9E9E9E"/>
<path opacity="0.2" d="M159.365 67.3672H156.207V71.8322H159.365V67.3672Z" fill="white"/>
<path d="M156.659 67.0547H156.207V71.8389H156.659V67.0547Z" fill="#9E9E9E"/>
<path d="M149.418 74.2578H146.26V79.042H149.418V74.2578Z" fill="#9E9E9E"/>
<path opacity="0.2" d="M149.418 74.5781H146.26V79.0431H149.418V74.5781Z" fill="white"/>
<path d="M146.712 74.2578H146.26V79.042H146.712V74.2578Z" fill="#9E9E9E"/>
<path d="M154.39 74.2578H151.232V79.042H154.39V74.2578Z" fill="#9E9E9E"/>
<path opacity="0.2" d="M154.39 74.5781H151.232V79.0431H154.39V74.5781Z" fill="white"/>
<path d="M151.685 74.2578H151.232V79.042H151.685V74.2578Z" fill="#9E9E9E"/>
<path d="M159.365 74.2578H156.207V79.042H159.365V74.2578Z" fill="#9E9E9E"/>
<path opacity="0.2" d="M159.365 74.5781H156.207V79.0431H159.365V74.5781Z" fill="white"/>
<path d="M156.659 74.2578H156.207V79.042H156.659V74.2578Z" fill="#9E9E9E"/>
<path d="M149.418 81.4609H146.26V86.2451H149.418V81.4609Z" fill="#9E9E9E"/>
<path opacity="0.2" d="M149.418 81.7812H146.26V86.2462H149.418V81.7812Z" fill="white"/>
<path d="M146.712 81.4609H146.26V86.2451H146.712V81.4609Z" fill="#9E9E9E"/>
<path d="M154.39 81.4609H151.232V86.2451H154.39V81.4609Z" fill="#9E9E9E"/>
<path opacity="0.2" d="M154.39 81.7812H151.232V86.2462H154.39V81.7812Z" fill="white"/>
<path d="M151.685 81.4609H151.232V86.2451H151.685V81.4609Z" fill="#9E9E9E"/>
<path d="M159.365 81.4609H156.207V86.2451H159.365V81.4609Z" fill="#9E9E9E"/>
<path opacity="0.2" d="M159.365 81.7812H156.207V86.2462H159.365V81.7812Z" fill="white"/>
<path d="M156.659 81.4609H156.207V86.2451H156.659V81.4609Z" fill="#9E9E9E"/>
<path d="M149.418 88.6641H146.26V93.4483H149.418V88.6641Z" fill="#9E9E9E"/>
<path opacity="0.2" d="M149.418 88.9844H146.26V93.4494H149.418V88.9844Z" fill="white"/>
<path d="M146.712 88.6641H146.26V93.4483H146.712V88.6641Z" fill="#9E9E9E"/>
<path d="M154.39 88.6641H151.232V93.4483H154.39V88.6641Z" fill="#9E9E9E"/>
<path opacity="0.2" d="M154.39 88.9844H151.232V93.4494H154.39V88.9844Z" fill="white"/>
<path d="M151.685 88.6641H151.232V93.4483H151.685V88.6641Z" fill="#9E9E9E"/>
<path d="M159.365 88.6641H156.207V93.4483H159.365V88.6641Z" fill="#9E9E9E"/>
<path opacity="0.2" d="M159.365 88.9844H156.207V93.4494H159.365V88.9844Z" fill="white"/>
<path d="M156.659 88.6641H156.207V93.4483H156.659V88.6641Z" fill="#9E9E9E"/>
<path d="M149.418 95.8672H146.26V100.651H149.418V95.8672Z" fill="#9E9E9E"/>
<path opacity="0.2" d="M149.418 96.1875H146.26V100.652H149.418V96.1875Z" fill="white"/>
<path d="M146.712 95.8672H146.26V100.651H146.712V95.8672Z" fill="#9E9E9E"/>
<path d="M154.39 95.8672H151.232V100.651H154.39V95.8672Z" fill="#9E9E9E"/>
<path opacity="0.2" d="M154.39 96.1875H151.232V100.652H154.39V96.1875Z" fill="white"/>
<path d="M151.685 95.8672H151.232V100.651H151.685V95.8672Z" fill="#9E9E9E"/>
<path d="M159.365 95.8672H156.207V100.651H159.365V95.8672Z" fill="#9E9E9E"/>
<path opacity="0.2" d="M159.365 96.1875H156.207V100.652H159.365V96.1875Z" fill="white"/>
<path d="M156.659 95.8672H156.207V100.651H156.659V95.8672Z" fill="#9E9E9E"/>
<path d="M149.418 103.07H146.26V107.855H149.418V103.07Z" fill="#9E9E9E"/>
<path opacity="0.2" d="M149.418 103.391H146.26V107.856H149.418V103.391Z" fill="white"/>
<path d="M146.712 103.07H146.26V107.855H146.712V103.07Z" fill="#9E9E9E"/>
<path d="M154.39 103.07H151.232V107.855H154.39V103.07Z" fill="#9E9E9E"/>
<path opacity="0.2" d="M154.39 103.391H151.232V107.856H154.39V103.391Z" fill="white"/>
<path d="M151.685 103.07H151.232V107.855H151.685V103.07Z" fill="#9E9E9E"/>
<path d="M159.365 103.07H156.207V107.855H159.365V103.07Z" fill="#9E9E9E"/>
<path opacity="0.2" d="M159.365 103.391H156.207V107.856H159.365V103.391Z" fill="white"/>
<path d="M156.659 103.07H156.207V107.855H156.659V103.07Z" fill="#9E9E9E"/>
<path d="M149.418 110.273H146.26V115.058H149.418V110.273Z" fill="#9E9E9E"/>
<path opacity="0.2" d="M149.418 110.594H146.26V115.059H149.418V110.594Z" fill="white"/>
<path d="M146.712 110.273H146.26V115.058H146.712V110.273Z" fill="#9E9E9E"/>
<path d="M154.39 110.273H151.232V115.058H154.39V110.273Z" fill="#9E9E9E"/>
<path opacity="0.2" d="M154.39 110.594H151.232V115.059H154.39V110.594Z" fill="white"/>
<path d="M151.685 110.273H151.232V115.058H151.685V110.273Z" fill="#9E9E9E"/>
<path d="M159.365 110.273H156.207V115.058H159.365V110.273Z" fill="#9E9E9E"/>
<path opacity="0.2" d="M159.365 110.594H156.207V115.059H159.365V110.594Z" fill="white"/>
<path d="M156.659 110.273H156.207V115.058H156.659V110.273Z" fill="#9E9E9E"/>
<path d="M116.704 23.7734H116.16V35.4774H116.704V23.7734Z" fill="#263238"/>
<path d="M128.512 23.7734H127.969V35.4774H128.512V23.7734Z" fill="#263238"/>
<path d="M138.731 29.1016H120.373V38.803H138.731V29.1016Z" fill="#9E9E9E"/>
<path opacity="0.7" d="M138.731 29.1016H120.373V38.803H138.731V29.1016Z" fill="white"/>
<path d="M128.114 29.1016H109.756V38.803H128.114V29.1016Z" fill="#9E9E9E"/>
<path opacity="0.4" d="M128.114 29.1016H109.756V38.803H128.114V29.1016Z" fill="white"/>
<path opacity="0.5" d="M108.011 44.0078H107.092V47.8078H108.011V44.0078Z" fill="white"/>
<path opacity="0.5" d="M108.011 53.8203H107.092V57.6203H108.011V53.8203Z" fill="white"/>
<path opacity="0.5" d="M108.011 60.4609H107.092V64.2609H108.011V60.4609Z" fill="white"/>
<path opacity="0.5" d="M108.011 67.1094H107.092V70.9094H108.011V67.1094Z" fill="white"/>
<path opacity="0.5" d="M108.011 73.75H107.092V77.55H108.011V73.75Z" fill="white"/>
<path opacity="0.5" d="M108.011 80.3906H107.092V84.1906H108.011V80.3906Z" fill="white"/>
<path opacity="0.5" d="M108.011 87.7188H107.092V91.5187H108.011V87.7188Z" fill="white"/>
<path opacity="0.5" d="M108.011 95.0391H107.092V98.8391H108.011V95.0391Z" fill="white"/>
<path opacity="0.5" d="M108.011 102.359H107.092V106.159H108.011V102.359Z" fill="white"/>
<path opacity="0.5" d="M108.011 109.68H107.092V113.48H108.011V109.68Z" fill="white"/>
<path d="M143.899 38.9453H115.213V116.918H143.899V38.9453Z" fill="#9E9E9E"/>
<path d="M133.274 38.9453H104.588V116.918H133.274V38.9453Z" fill="#9E9E9E"/>
<path opacity="0.3" d="M143.895 40.0156H133.277V116.92H143.895V40.0156Z" fill="white"/>
<path opacity="0.5" d="M133.274 38.9453H104.588V116.918H133.274V38.9453Z" fill="white"/>
<path d="M130.558 42.3516H127.039V115.053H130.558V42.3516Z" fill="#9E9E9E"/>
<path d="M123.779 42.3516H120.26V115.053H123.779V42.3516Z" fill="#9E9E9E"/>
<path d="M116.999 42.3516H113.48V115.053H116.999V42.3516Z" fill="#9E9E9E"/>
<path d="M110.216 42.3516H106.697V115.053H110.216V42.3516Z" fill="#9E9E9E"/>
<path opacity="0.2" d="M130.558 43.2734H127.039V115.055H130.558V43.2734Z" fill="white"/>
<path opacity="0.2" d="M123.779 43.2734H120.26V115.055H123.779V43.2734Z" fill="white"/>
<path opacity="0.2" d="M116.999 43.2734H113.48V115.055H116.999V43.2734Z" fill="white"/>
<path opacity="0.2" d="M110.216 43.2734H106.697V115.055H110.216V43.2734Z" fill="white"/>
<path d="M142.672 42.3516H141.197V115.053H142.672V42.3516Z" fill="#9E9E9E"/>
<path d="M139.83 42.3516H138.355V115.053H139.83V42.3516Z" fill="#9E9E9E"/>
<path d="M136.984 42.3516H135.51V115.053H136.984V42.3516Z" fill="#9E9E9E"/>
<g opacity="0.3">
<path opacity="0.4" d="M142.674 43.2734H141.199V115.055H142.674V43.2734Z" fill="white"/>
<path opacity="0.4" d="M139.83 43.2734H138.355V115.055H139.83V43.2734Z" fill="white"/>
<path opacity="0.4" d="M136.984 43.2734H135.51V115.055H136.984V43.2734Z" fill="white"/>
</g>
<path d="M143.283 36.7344H133.277V38.1974H143.283V36.7344Z" fill="#9E9E9E"/>
<path d="M143.283 36.375H104.588V38.1952H143.283V36.375Z" fill="#F0F0F0"/>
<path d="M144.641 38.1953H103.779V40.0155H144.641V38.1953Z" fill="#9E9E9E"/>
<path d="M144.641 34.9141H103.779V36.7343H144.641V34.9141Z" fill="#9E9E9E"/>
<path opacity="0.1" d="M144.641 38.1953H103.779V40.0155H144.641V38.1953Z" fill="black"/>
<path opacity="0.1" d="M144.641 34.9141H103.779V36.7343H144.641V34.9141Z" fill="black"/>
<path opacity="0.2" d="M144.639 38.1953H133.277V40.0155H144.639V38.1953Z" fill="black"/>
<path opacity="0.2" d="M144.639 34.9141H133.277V36.7343H144.639V34.9141Z" fill="black"/>
<path opacity="0.3" d="M121.137 29.1016H116.752V33.4868H121.137V29.1016Z" fill="white"/>
<path d="M72.5014 64.2611C68.7774 59.8683 64.111 58.3673 60.6872 60.0051C60.1947 60.2408 59.6386 60.3086 59.104 60.1981C58.5693 60.0876 58.0856 59.8049 57.727 59.3933C53.585 54.9055 46.8704 54.3735 44.085 58.6067C43.7697 59.0859 43.5024 59.595 43.287 60.1267C42.9451 60.9824 42.3762 61.7287 41.6416 62.2851C41.1426 62.6555 40.714 63.1124 40.3762 63.6341C39.4722 65.1327 39.0529 66.8738 39.1754 68.6197C39.1963 68.8802 39.1423 69.1413 39.0197 69.3723C38.8972 69.6032 38.7113 69.7943 38.4838 69.9231C37.7083 70.3292 37.0531 70.932 36.5838 71.6711C34.3266 75.0911 35.3222 81.2091 38.8068 85.3169C41.9114 88.9763 45.9432 89.8161 48.379 87.5285C48.4781 87.4333 48.6102 87.3801 48.7476 87.3801C48.885 87.3801 49.0171 87.4333 49.1162 87.5285C50.8718 89.1055 52.9162 89.1169 53.9688 87.4069C54.0092 87.3323 54.0666 87.2683 54.1363 87.2201C54.2061 87.1719 54.2862 87.1407 54.3702 87.1293C54.4542 87.1178 54.5398 87.1263 54.6199 87.154C54.7 87.1818 54.7725 87.2281 54.8314 87.2891C56.6402 89.1017 58.8252 89.1891 59.9386 87.4069C60.1392 87.0751 60.2927 86.717 60.3946 86.3429C60.4101 86.2634 60.4426 86.1883 60.4898 86.1225C60.5371 86.0568 60.598 86.002 60.6683 85.962C60.7387 85.9219 60.8168 85.8975 60.8975 85.8905C60.9781 85.8834 61.0593 85.8939 61.1356 85.9211C62.3174 86.3961 63.4764 86.1909 64.2668 85.2561C64.3452 85.159 64.4562 85.0935 64.5791 85.0719C64.702 85.0502 64.8287 85.0738 64.9356 85.1383C68.9902 87.5627 73.2652 87.0953 75.644 83.4815C78.8246 78.6441 77.4414 70.0447 72.5014 64.2611Z" fill="#9E9E9E"/>
<path opacity="0.6" d="M72.5014 64.2611C68.7774 59.8683 64.111 58.3673 60.6872 60.0051C60.1947 60.2408 59.6386 60.3086 59.104 60.1981C58.5693 60.0876 58.0856 59.8049 57.727 59.3933C53.585 54.9055 46.8704 54.3735 44.085 58.6067C43.7697 59.0859 43.5024 59.595 43.287 60.1267C42.9451 60.9824 42.3762 61.7287 41.6416 62.2851C41.1426 62.6555 40.714 63.1124 40.3762 63.6341C39.4722 65.1327 39.0529 66.8738 39.1754 68.6197C39.1963 68.8802 39.1423 69.1413 39.0197 69.3723C38.8972 69.6032 38.7113 69.7943 38.4838 69.9231C37.7083 70.3292 37.0531 70.932 36.5838 71.6711C34.3266 75.0911 35.3222 81.2091 38.8068 85.3169C41.9114 88.9763 45.9432 89.8161 48.379 87.5285C48.4781 87.4333 48.6102 87.3801 48.7476 87.3801C48.885 87.3801 49.0171 87.4333 49.1162 87.5285C50.8718 89.1055 52.9162 89.1169 53.9688 87.4069C54.0092 87.3323 54.0666 87.2683 54.1363 87.2201C54.2061 87.1719 54.2862 87.1407 54.3702 87.1293C54.4542 87.1178 54.5398 87.1263 54.6199 87.154C54.7 87.1818 54.7725 87.2281 54.8314 87.2891C56.6402 89.1017 58.8252 89.1891 59.9386 87.4069C60.1392 87.0751 60.2927 86.717 60.3946 86.3429C60.4101 86.2634 60.4426 86.1883 60.4898 86.1225C60.5371 86.0568 60.598 86.002 60.6683 85.962C60.7387 85.9219 60.8168 85.8975 60.8975 85.8905C60.9781 85.8834 61.0593 85.8939 61.1356 85.9211C62.3174 86.3961 63.4764 86.1909 64.2668 85.2561C64.3452 85.159 64.4562 85.0935 64.5791 85.0719C64.702 85.0502 64.8287 85.0738 64.9356 85.1383C68.9902 87.5627 73.2652 87.0953 75.644 83.4815C78.8246 78.6441 77.4414 70.0447 72.5014 64.2611Z" fill="white"/>
<path d="M47.7156 89.529L51.2458 92.9832C50.9646 97.8586 50.7328 109.088 50.7328 109.088L49.4788 116.938L60.5406 117.045C60.5406 117.045 60.039 110.414 60.039 110.057C60.039 109.699 57.8996 96.996 57.8996 96.996L57.1396 89.8824L62.8396 88.047L63.8808 84.8778L68.0608 82.3774L70.109 79.06L69.3186 78.8586L67.0386 81.9214L64.3976 82.5256L65.5376 79.706H64.2798L61.1372 86.242L57.0864 87.116L57.6146 77.939C54.377 79.535 53.3396 76.875 53.3396 76.875C53.3396 76.875 52.002 89.2288 51.5308 90.6348L49.4446 89.529L47.1646 85.7594H46.207L47.7156 89.529Z" fill="#9E9E9E"/>
<path d="M31.5274 104.859H30.9688V112.041H31.5274V104.859Z" fill="#9E9E9E"/>
<path opacity="0.2" d="M31.5274 104.859H30.9688V112.041H31.5274V104.859Z" fill="black"/>
<path d="M43.1055 104.859H42.5469V112.041H43.1055V104.859Z" fill="#9E9E9E"/>
<path opacity="0.2" d="M43.1055 104.859H42.5469V112.041H43.1055V104.859Z" fill="black"/>
<path d="M43.7391 111.344H30.3555V112.218H43.7391V111.344Z" fill="#9E9E9E"/>
<path opacity="0.2" d="M43.7391 111.344H30.3555V112.218H43.7391V111.344Z" fill="white"/>
<path d="M31.2461 112.188H30.6875V117.048H31.2461V112.188Z" fill="#9E9E9E"/>
<path opacity="0.2" d="M31.2461 112.188H30.6875V117.048H31.2461V112.188Z" fill="black"/>
<path d="M43.4629 112.188H42.9043V117.048H43.4629V112.188Z" fill="#9E9E9E"/>
<path opacity="0.2" d="M43.4629 112.188H42.9043V117.048H43.4629V112.188Z" fill="black"/>
<path d="M43.7391 105.18H30.3555V109.405H43.7391V105.18Z" fill="#9E9E9E"/>
<path opacity="0.2" d="M43.7391 105.18H30.3555V109.405H43.7391V105.18Z" fill="white"/>
<path d="M43.713 112.039H30.375V113.399H43.713V112.039Z" fill="#9E9E9E"/>
<path opacity="0.1" d="M43.713 112.039H30.375V113.399H43.713V112.039Z" fill="black"/>
<path d="M30.375 110.109H29.8164V117.044H30.375V110.109Z" fill="#9E9E9E"/>
<path d="M30.5919 109.414H29.6191V110.387H30.5919V109.414Z" fill="#9E9E9E"/>
<path opacity="0.2" d="M30.5919 109.414H29.6191V110.387H30.5919V109.414Z" fill="white"/>
<path d="M31.3479 109.414H30.5879V110.387H31.3479V109.414Z" fill="#9E9E9E"/>
<path d="M43.7168 117.047H44.2754V110.112H43.7168V117.047Z" fill="#9E9E9E"/>
<path d="M43.5037 110.383H44.4727V109.41H43.5037V110.383Z" fill="#9E9E9E"/>
<path opacity="0.2" d="M43.5037 110.383H44.4727V109.41H43.5037V110.383Z" fill="white"/>
<path d="M43.5002 109.414H42.7402V110.387H43.5002V109.414Z" fill="#9E9E9E"/>
<path opacity="0.1" d="M31.3479 109.414H30.5879V110.387H31.3479V109.414Z" fill="black"/>
<path opacity="0.1" d="M43.5002 109.414H42.7402V110.387H43.5002V109.414Z" fill="black"/>
<path d="M30.3515 56.3672H29.8613V58.5104H30.3515V56.3672Z" fill="#263238"/>
<path d="M33.6719 55.4766C30.6319 55.8566 26.0339 56.875 22.4277 58.7712V59.4894C25.9191 57.6126 29.7492 56.45 33.6947 56.0694L33.6719 55.4766Z" fill="#9E9E9E"/>
<path d="M38.9518 56.543C38.7568 56.3746 38.5378 56.2363 38.302 56.1326C37.7814 55.9084 34.6312 56.3796 33.552 56.5506V56.0908L33.5254 55.4942C34.2588 55.4182 34.9162 55.365 35.471 55.3308C36.3792 55.2814 37.0518 55.251 37.5496 55.2358C37.728 55.2276 37.9061 55.2552 38.0737 55.3168C38.2413 55.3784 38.3949 55.4729 38.5255 55.5946C38.6561 55.7164 38.7611 55.863 38.8343 56.0258C38.9075 56.1887 38.9474 56.3645 38.9518 56.543Z" fill="#9E9E9E"/>
<path d="M22.4288 63.8204C22.328 63.8204 22.2314 63.7803 22.1601 63.7091C22.0889 63.6378 22.0488 63.5411 22.0488 63.4404C22.0488 63.2466 22.0488 62.8438 24.0704 61.016C24.3549 60.7536 24.6571 60.511 24.9748 60.2902C26.8342 59.1031 28.9203 58.3163 31.1004 57.9798C31.2012 57.9667 31.3031 57.9941 31.3836 58.0561C31.4641 58.1181 31.5167 58.2096 31.5298 58.3104C31.5429 58.4111 31.5155 58.513 31.4535 58.5935C31.3915 58.6741 31.3 58.7267 31.1992 58.7398C31.1688 58.7398 27.935 59.1958 25.4042 60.9248C25.1139 61.1265 24.8383 61.3488 24.5796 61.5898C23.2648 62.7792 22.8468 63.3378 22.805 63.4898C22.7931 63.5811 22.7483 63.665 22.6791 63.7258C22.6099 63.7866 22.521 63.8202 22.4288 63.8204Z" fill="#263238"/>
<path d="M21.923 58.6644H22.683C22.7072 58.6644 22.7304 58.674 22.7475 58.6911C22.7646 58.7082 22.7742 58.7314 22.7742 58.7556V117.074H21.8242V58.748C21.8252 58.736 21.8285 58.7243 21.834 58.7136C21.8395 58.7029 21.847 58.6934 21.8562 58.6856C21.8654 58.6779 21.876 58.672 21.8875 58.6683C21.899 58.6647 21.911 58.6634 21.923 58.6644Z" fill="#263238"/>
<path d="M38.9547 56.5818V56.6123L34.5429 57.0264L33.5625 56.6123V56.5476C34.6417 56.3766 37.7919 55.9054 38.3125 56.1296C38.5443 56.2344 38.7594 56.3727 38.9509 56.54C38.9543 56.5537 38.9555 56.5678 38.9547 56.5818Z" fill="#9E9E9E"/>
<path opacity="0.6" d="M38.9547 56.5818V56.6123L34.5429 57.0264L33.5625 56.6123V56.5476C34.6417 56.3766 37.7919 55.9054 38.3125 56.1296C38.5443 56.2344 38.7594 56.3727 38.9509 56.54C38.9543 56.5537 38.9555 56.5678 38.9547 56.5818Z" fill="white"/>
<path d="M151.52 83.6641H152.504C152.536 83.6641 152.566 83.6765 152.588 83.6986C152.61 83.7207 152.622 83.7506 152.622 83.7819V120.03H151.402V83.7819C151.402 83.7506 151.415 83.7207 151.437 83.6986C151.459 83.6765 151.489 83.6641 151.52 83.6641Z" fill="#263238"/>
<path d="M157.813 84.6484H146.166C145.423 84.6484 144.82 85.2507 144.82 85.9936V88.1634C144.82 88.9064 145.423 89.5086 146.166 89.5086H157.813C158.555 89.5086 159.158 88.9064 159.158 88.1634V85.9936C159.158 85.2507 158.555 84.6484 157.813 84.6484Z" fill="#9E9E9E"/>
<path opacity="0.9" d="M157.813 84.6484H146.166C145.423 84.6484 144.82 85.2507 144.82 85.9936V88.1634C144.82 88.9064 145.423 89.5086 146.166 89.5086H157.813C158.555 89.5086 159.158 88.9064 159.158 88.1634V85.9936C159.158 85.2507 158.555 84.6484 157.813 84.6484Z" fill="white"/>
<path d="M157.448 85.0078H146.599C145.856 85.0078 145.254 85.6101 145.254 86.353V87.7362C145.254 88.4791 145.856 89.0814 146.599 89.0814H157.448C158.191 89.0814 158.793 88.4791 158.793 87.7362V86.353C158.793 85.6101 158.191 85.0078 157.448 85.0078Z" fill="#9E9E9E"/>
<path d="M155.836 87.4857L155.904 87.3375C156.004 87.4105 156.123 87.4504 156.246 87.4515C156.406 87.4515 156.474 87.3907 156.474 87.3147C156.474 87.0943 155.859 87.2387 155.859 86.8549C155.859 86.6877 155.992 86.5471 156.277 86.5471C156.398 86.5441 156.518 86.5757 156.623 86.6383L156.562 86.7865C156.475 86.7365 156.377 86.7091 156.277 86.7067C156.117 86.7067 156.053 86.7675 156.053 86.8473C156.053 87.0639 156.664 86.9233 156.664 87.3033C156.664 87.4667 156.531 87.6111 156.246 87.6111C156.099 87.6161 155.955 87.5719 155.836 87.4857Z" fill="white"/>
<path d="M157.053 86.7259H156.711V86.5625H157.589V86.7259H157.243V87.5999H157.049L157.053 86.7259Z" fill="white"/>
<path d="M174.923 116.703H15.2617V120.716H174.923V116.703Z" fill="#9E9E9E"/>
<g opacity="0.7">
<path d="M174.923 116.703H15.2617V120.716H174.923V116.703Z" fill="white"/>
</g>
<path d="M23.8722 116.703H23.4922V121.001H23.8722V116.703Z" fill="white"/>
<path d="M59.5851 116.703H59.2051V121.001H59.5851V116.703Z" fill="white"/>
<path d="M95.298 116.703H94.918V121.001H95.298V116.703Z" fill="white"/>
<path d="M131.009 116.703H130.629V121.001H131.009V116.703Z" fill="white"/>
<path d="M166.722 116.703H166.342V121.001H166.722V116.703Z" fill="white"/>
<path d="M174.923 122.289H15.2617V124.151H174.923V122.289Z" fill="#9E9E9E"/>
<path opacity="0.9" d="M174.923 122.289H15.2617V124.151H174.923V122.289Z" fill="white"/>
<path d="M77.2907 136.414H77.1843C76.4243 137.049 75.1626 137.459 73.996 137.641C72.6546 137.854 71.3361 137.847 70.0022 138.048C69.2004 138.159 68.4178 138.38 67.6767 138.705C67.5043 138.841 67.343 138.989 67.1941 139.15C66.9243 139.443 66.8787 139.754 67.4791 139.929C69.2753 140.471 71.198 140.422 72.9642 139.789C74.7305 139.156 76.247 137.973 77.2907 136.414Z" fill="#263238"/>
<path d="M68.0794 139.647L66.0616 140.331C65.5182 140.411 65.4726 140.092 65.8488 139.951C66.5632 139.925 67.9426 139.434 68.0794 139.647Z" fill="#263238"/>
<g opacity="0.8">
<path d="M77.2907 136.414H77.1843C76.4243 137.049 75.1626 137.459 73.996 137.641C72.6546 137.854 71.3361 137.847 70.0022 138.048C69.2004 138.159 68.4178 138.38 67.6767 138.705C67.5043 138.841 67.343 138.989 67.1941 139.15C66.9243 139.443 66.8787 139.754 67.4791 139.929C69.2753 140.471 71.198 140.422 72.9642 139.789C74.7305 139.156 76.247 137.973 77.2907 136.414Z" fill="white"/>
<path d="M68.0794 139.655L66.0616 140.339C65.5182 140.419 65.4726 140.1 65.8488 139.959C66.5632 139.932 67.9426 139.442 68.0794 139.655Z" fill="white"/>
</g>
<path d="M76.5454 134.874C76.5454 134.957 76.4998 135.048 76.4656 135.151C76.4314 135.254 76.4314 135.257 76.4124 135.311C76.3744 135.425 76.3288 135.542 76.2794 135.672L76.192 135.873C76.1578 135.957 76.1236 136.036 76.0818 136.12C76.04 136.204 76.002 136.291 75.9564 136.378C75.9108 136.466 75.869 136.553 75.8196 136.644C75.7702 136.736 75.7284 136.812 75.679 136.895C75.6296 136.979 75.565 137.093 75.5004 137.192L75.3218 137.469C75.2572 137.564 75.1926 137.655 75.1242 137.746C75.0558 137.838 74.9874 137.929 74.9152 138.02C74.843 138.111 74.767 138.206 74.6872 138.294C74.6074 138.381 74.5352 138.465 74.4554 138.548C74.3756 138.632 74.2882 138.719 74.2008 138.799C74.1197 138.737 74.0301 138.687 73.9348 138.651C73.7222 138.542 73.4753 138.52 73.2472 138.591C73.0191 138.662 72.828 138.82 72.715 139.031C72.6713 139.153 72.6598 139.285 72.6818 139.414C72.7038 139.542 72.7584 139.663 72.8404 139.764C72.6743 139.85 72.5029 139.924 72.3274 139.988L72.1792 140.038L72.012 140.091C71.9313 140.118 71.8487 140.14 71.765 140.156C71.705 140.172 71.6441 140.184 71.5826 140.194C71.4925 140.216 71.4011 140.232 71.309 140.243L70.9974 140.273C70.8885 140.273 70.7745 140.273 70.6554 140.273C70.2214 140.271 69.7891 140.219 69.3672 140.118C69.132 140.061 68.8999 139.993 68.6718 139.912C68.2453 139.759 67.8311 139.574 67.433 139.358C67.262 139.266 67.091 139.168 66.9124 139.057C66.7867 139.002 66.6743 138.921 66.5826 138.818C66.491 138.716 66.4221 138.596 66.3808 138.465C66.3394 138.334 66.3265 138.195 66.3428 138.059C66.3591 137.923 66.4043 137.792 66.4754 137.674C66.5944 137.438 66.7356 137.214 66.8972 137.005C67.6016 136.591 68.3952 136.351 69.2114 136.306C70.5794 136.204 71.955 136.458 73.3192 136.34C74.5048 136.238 75.7626 135.77 76.4352 134.82L76.5454 134.874Z" fill="#9E9E9E"/>
<path d="M67.4897 138.729L65.5023 139.527C64.9475 139.569 64.8449 139.014 65.2135 138.851C65.9545 138.927 67.2921 138.338 67.4897 138.729Z" fill="#9E9E9E"/>
<path opacity="0.2" d="M76.5454 134.874C76.5454 134.957 76.4998 135.048 76.4656 135.151C76.4314 135.254 76.4314 135.257 76.4124 135.311C76.3744 135.425 76.3288 135.542 76.2794 135.672L76.192 135.873C76.1578 135.957 76.1236 136.036 76.0818 136.12C76.04 136.204 76.002 136.291 75.9564 136.378C75.9108 136.466 75.869 136.553 75.8196 136.644C75.7702 136.736 75.7284 136.812 75.679 136.895C75.6296 136.979 75.565 137.093 75.5004 137.192L75.3218 137.469C75.2572 137.564 75.1926 137.655 75.1242 137.746C75.0558 137.838 74.9874 137.929 74.9152 138.02C74.843 138.111 74.767 138.206 74.6872 138.294C74.6074 138.381 74.5352 138.465 74.4554 138.548C74.3756 138.632 74.2882 138.719 74.2008 138.799C74.1197 138.737 74.0301 138.687 73.9348 138.651C73.7222 138.542 73.4753 138.52 73.2472 138.591C73.0191 138.662 72.828 138.82 72.715 139.031C72.6713 139.153 72.6598 139.285 72.6818 139.414C72.7038 139.542 72.7584 139.663 72.8404 139.764C72.6743 139.85 72.5029 139.924 72.3274 139.988L72.1792 140.038L72.012 140.091C71.9313 140.118 71.8487 140.14 71.765 140.156C71.705 140.172 71.6441 140.184 71.5826 140.194C71.4925 140.216 71.4011 140.232 71.309 140.243L70.9974 140.273C70.8885 140.273 70.7745 140.273 70.6554 140.273C70.2214 140.271 69.7891 140.219 69.3672 140.118C69.1317 140.062 68.8996 139.994 68.6718 139.912C68.244 139.763 67.8296 139.577 67.433 139.358C67.262 139.266 67.091 139.168 66.9124 139.057C66.7867 139.002 66.6743 138.921 66.5826 138.818C66.491 138.716 66.4221 138.596 66.3808 138.465C66.3394 138.334 66.3265 138.195 66.3428 138.059C66.3591 137.923 66.4043 137.792 66.4754 137.674C66.5944 137.438 66.7356 137.214 66.8972 137.005C67.6016 136.591 68.3952 136.351 69.2114 136.306C70.5794 136.204 71.955 136.458 73.3192 136.34C74.5048 136.238 75.7626 135.77 76.4352 134.82L76.5454 134.874Z" fill="white"/>
<path d="M114.682 136.493L114.742 136.467C115.432 136.724 116.176 136.804 116.905 136.699C117.763 136.611 118.569 136.391 119.424 136.292C119.936 136.229 120.454 136.237 120.963 136.315C121.094 136.37 121.221 136.435 121.343 136.509C121.556 136.645 121.636 136.832 121.297 137.033C120.283 137.666 119.092 137.955 117.9 137.858C116.709 137.761 115.58 137.282 114.682 136.493Z" fill="#263238"/>
<path d="M120.865 136.975L122.218 137.063C122.564 137.025 122.541 136.82 122.286 136.797C121.842 136.896 120.926 136.816 120.865 136.975Z" fill="#263238"/>
<g opacity="0.8">
<path d="M114.682 136.493L114.742 136.467C115.432 136.724 116.176 136.804 116.905 136.699C117.763 136.611 118.569 136.391 119.424 136.292C119.936 136.229 120.454 136.237 120.963 136.315C121.094 136.37 121.221 136.435 121.343 136.509C121.556 136.645 121.636 136.832 121.297 137.033C120.283 137.666 119.092 137.955 117.9 137.858C116.709 137.761 115.58 137.282 114.682 136.493Z" fill="white"/>
<path d="M120.863 136.975L122.216 137.063C122.562 137.025 122.539 136.82 122.284 136.797C121.84 136.896 120.924 136.816 120.863 136.975Z" fill="white"/>
</g>
<path d="M115.062 134.98L115.127 134.945C115.408 135.201 115.74 135.394 116.101 135.513C116.461 135.631 116.843 135.672 117.221 135.633C118.091 135.588 118.938 135.306 119.809 135.253C120.327 135.21 120.849 135.292 121.329 135.493C121.447 135.61 121.555 135.737 121.652 135.873C121.706 135.941 121.746 136.02 121.768 136.104C121.789 136.189 121.793 136.277 121.778 136.363C121.764 136.45 121.731 136.532 121.682 136.604C121.633 136.677 121.57 136.738 121.496 136.785C117.893 139.752 115.484 136.009 115.062 134.98Z" fill="#9E9E9E"/>
<path d="M121.107 136.617L122.43 136.947C122.783 136.925 122.81 136.567 122.551 136.495C122.092 136.605 121.199 136.355 121.107 136.617Z" fill="#9E9E9E"/>
<path opacity="0.2" d="M115.062 134.98L115.127 134.945C115.408 135.201 115.74 135.394 116.101 135.513C116.461 135.631 116.843 135.672 117.221 135.633C118.091 135.588 118.938 135.306 119.809 135.253C120.327 135.21 120.849 135.292 121.329 135.493C121.447 135.61 121.555 135.737 121.652 135.873C121.706 135.941 121.746 136.02 121.768 136.104C121.789 136.189 121.793 136.277 121.778 136.363C121.764 136.45 121.731 136.532 121.682 136.604C121.633 136.677 121.57 136.738 121.496 136.785C117.893 139.752 115.484 136.009 115.062 134.98Z" fill="white"/>
<path d="M92.2285 135.662L92.1677 135.636C91.4742 135.869 90.7329 135.923 90.0131 135.792C89.1619 135.674 88.3715 135.412 87.5203 135.301C87.0172 135.224 86.506 135.214 86.0003 135.271C85.8696 135.322 85.7427 135.381 85.6203 135.45C85.4037 135.579 85.3163 135.757 85.6469 135.974C86.6323 136.635 87.804 136.961 88.9891 136.905C90.1742 136.849 91.3098 136.413 92.2285 135.662Z" fill="#263238"/>
<path d="M86.0603 135.92L84.7113 135.961C84.3693 135.908 84.3997 135.707 84.6543 135.695C85.0913 135.806 86.0071 135.764 86.0603 135.92Z" fill="#263238"/>
<g opacity="0.8">
<path d="M92.2285 135.662L92.1677 135.636C91.4742 135.869 90.7329 135.923 90.0131 135.792C89.1619 135.674 88.3715 135.412 87.5203 135.301C87.0172 135.224 86.506 135.214 86.0003 135.271C85.8696 135.322 85.7427 135.381 85.6203 135.45C85.4037 135.579 85.3163 135.757 85.6469 135.974C86.6323 136.635 87.804 136.961 88.9891 136.905C90.1742 136.849 91.3098 136.413 92.2285 135.662Z" fill="white"/>
<path d="M86.0603 135.927L84.7113 135.969C84.3693 135.916 84.3997 135.715 84.6543 135.703C85.0913 135.813 86.0071 135.772 86.0603 135.927Z" fill="white"/>
</g>
<path d="M92.0608 134.596C92.0427 134.579 92.0222 134.563 92 134.551C91.6841 134.757 91.3282 134.894 90.9557 134.954C90.5832 135.014 90.2023 134.994 89.8378 134.897C88.9904 134.718 88.2038 134.308 87.3602 134.137C86.8606 134.017 86.3398 134.017 85.8402 134.137C85.7047 134.235 85.5776 134.344 85.4602 134.463C85.3953 134.521 85.3434 134.592 85.3078 134.671C85.2723 134.751 85.2539 134.836 85.2539 134.923C85.2539 135.01 85.2723 135.096 85.3078 135.175C85.3434 135.255 85.3953 135.325 85.4602 135.383C88.5382 138.852 91.5022 135.543 92.0608 134.596Z" fill="#9E9E9E"/>
<path d="M85.8748 135.256L84.5258 135.374C84.1838 135.298 84.2218 134.941 84.4764 134.914C84.9096 135.093 85.8254 134.982 85.8748 135.256Z" fill="#9E9E9E"/>
<path opacity="0.2" d="M92.0608 134.596C92.0427 134.579 92.0222 134.563 92 134.551C91.6841 134.757 91.3282 134.894 90.9557 134.954C90.5832 135.014 90.2023 134.994 89.8378 134.897C88.9904 134.718 88.2038 134.308 87.3602 134.137C86.8606 134.017 86.3398 134.017 85.8402 134.137C85.7047 134.235 85.5776 134.344 85.4602 134.463C85.3953 134.521 85.3434 134.592 85.3078 134.671C85.2723 134.751 85.2539 134.836 85.2539 134.923C85.2539 135.01 85.2723 135.096 85.3078 135.175C85.3434 135.255 85.3953 135.325 85.4602 135.383C88.5382 138.852 91.5022 135.543 92.0608 134.596Z" fill="white"/>
<path d="M135.24 139.293H135.29C135.8 139.033 136.366 138.902 136.939 138.913C137.611 138.913 138.257 138.993 138.93 138.985C139.331 138.986 139.73 138.931 140.116 138.822C140.209 138.768 140.298 138.705 140.382 138.636C140.534 138.51 140.579 138.362 140.298 138.233C139.453 137.844 138.505 137.737 137.594 137.928C136.683 138.119 135.858 138.598 135.24 139.293Z" fill="#263238"/>
<path d="M139.982 138.33L141.02 138.133C141.293 138.133 141.293 138.289 141.1 138.33C140.746 138.296 140.043 138.444 139.982 138.33Z" fill="#263238"/>
<g opacity="0.8">
<path d="M135.24 139.293H135.29C135.8 139.033 136.366 138.902 136.939 138.913C137.611 138.913 138.257 138.993 138.93 138.985C139.331 138.986 139.73 138.931 140.116 138.822C140.209 138.768 140.298 138.705 140.382 138.636C140.534 138.51 140.579 138.362 140.298 138.233C139.453 137.844 138.505 137.737 137.594 137.928C136.683 138.119 135.858 138.598 135.24 139.293Z" fill="white"/>
<path d="M139.982 138.33L141.02 138.133C141.293 138.133 141.293 138.289 141.1 138.33C140.746 138.296 140.043 138.444 139.982 138.33Z" fill="white"/>
</g>
<path d="M135.221 139.164L135.274 139.191C135.492 138.991 135.75 138.84 136.031 138.748C136.313 138.656 136.61 138.624 136.904 138.655C137.584 138.693 138.242 138.91 138.918 138.955C139.322 138.988 139.729 138.924 140.104 138.769C140.196 138.676 140.282 138.576 140.358 138.469C140.401 138.416 140.432 138.354 140.449 138.288C140.466 138.222 140.468 138.153 140.457 138.086C140.445 138.019 140.42 137.955 140.382 137.899C140.344 137.842 140.294 137.794 140.237 137.758C137.425 135.444 135.544 138.359 135.221 139.164Z" fill="#9E9E9E"/>
<path d="M139.93 137.887L140.959 137.633C141.233 137.633 141.248 137.929 141.054 137.982C140.697 137.895 139.998 138.085 139.93 137.887Z" fill="#9E9E9E"/>
<path opacity="0.2" d="M135.221 139.164L135.274 139.191C135.492 138.991 135.75 138.84 136.031 138.748C136.313 138.656 136.61 138.624 136.904 138.655C137.584 138.693 138.242 138.91 138.918 138.955C139.322 138.988 139.729 138.924 140.104 138.769C140.196 138.676 140.282 138.576 140.358 138.469C140.401 138.416 140.432 138.354 140.449 138.288C140.466 138.222 140.468 138.153 140.457 138.086C140.445 138.019 140.42 137.955 140.382 137.899C140.344 137.842 140.294 137.794 140.237 137.758C137.425 135.444 135.544 138.359 135.221 139.164Z" fill="white"/>
<path d="M56.941 137.629H56.8688C56.2645 137.161 55.5524 136.852 54.7978 136.732C53.92 136.553 53.0536 136.527 52.172 136.352C51.645 136.258 51.1335 136.092 50.652 135.858C50.5419 135.763 50.4391 135.66 50.3442 135.55C50.177 135.349 50.1542 135.143 50.5532 135.045C51.7543 134.733 53.0237 134.816 54.1739 135.281C55.3242 135.747 56.2943 136.57 56.941 137.629Z" fill="#263238"/>
<path d="M50.9446 135.249L49.6336 134.748C49.2764 134.679 49.2536 134.888 49.4854 134.987C49.9528 135.029 50.842 135.386 50.9446 135.249Z" fill="#263238"/>
<g opacity="0.8">
<path d="M56.941 137.629H56.8688C56.2645 137.161 55.5524 136.852 54.7978 136.732C53.92 136.553 53.0536 136.527 52.172 136.352C51.645 136.258 51.1335 136.092 50.652 135.858C50.5419 135.763 50.4391 135.66 50.3442 135.55C50.177 135.349 50.1542 135.143 50.5532 135.045C51.7543 134.733 53.0237 134.816 54.1739 135.281C55.3242 135.747 56.2943 136.57 56.941 137.629Z" fill="white"/>
<path d="M50.9446 135.249L49.6336 134.748C49.2764 134.679 49.2536 134.888 49.4854 134.987C49.9528 135.029 50.842 135.386 50.9446 135.249Z" fill="white"/>
</g>
<path d="M56.9946 137.477L56.9186 137.496C56.6778 137.184 56.374 136.926 56.027 136.74C55.68 136.553 55.2975 136.442 54.9046 136.413C54.0078 136.299 53.092 136.413 52.1914 136.325C51.65 136.275 51.1288 136.095 50.6714 135.801C50.5705 135.659 50.4839 135.508 50.413 135.349C50.3694 135.27 50.3431 135.182 50.336 135.092C50.3288 135.002 50.3409 134.911 50.3715 134.826C50.402 134.741 50.4503 134.663 50.5131 134.598C50.576 134.533 50.6519 134.482 50.736 134.448C54.9844 132.077 56.7628 136.345 56.9946 137.477Z" fill="#9E9E9E"/>
<path d="M51.1229 134.69L49.8308 134.113C49.4508 134.071 49.3824 134.432 49.6218 134.55C50.112 134.523 50.9785 134.945 51.1229 134.69Z" fill="#9E9E9E"/>
<path opacity="0.2" d="M56.9946 137.477L56.9186 137.496C56.6778 137.184 56.374 136.926 56.027 136.74C55.68 136.553 55.2975 136.442 54.9046 136.413C54.0078 136.299 53.092 136.413 52.1914 136.325C51.65 136.275 51.1288 136.095 50.6714 135.801C50.5705 135.659 50.4839 135.508 50.413 135.349C50.3694 135.27 50.3431 135.182 50.336 135.092C50.3288 135.002 50.3409 134.911 50.3715 134.826C50.402 134.741 50.4503 134.663 50.5131 134.598C50.576 134.533 50.6519 134.482 50.736 134.448C54.9844 132.077 56.7628 136.345 56.9946 137.477Z" fill="white"/>
</g>
</g>
<defs>
<clipPath id="clip0_6628_141181">
<rect width="190" height="147" fill="white" transform="translate(0.681641 0.75)"/>
</clipPath>
<clipPath id="clip1_6628_141181">
<rect width="190" height="190" fill="white" transform="translate(0.681641 -20.75)"/>
</clipPath>
</defs>
</svg>
